<svg width="114" height="114" viewBox="0 0 114 114" fill="none" xmlns="http://www.w3.org/2000/svg">
<path d="M69.2439 89.4092C69.826 88.5495 70.9991 88.3224 71.8597 88.9062L84.7633 97.6479L93.5989 92.686C94.5054 92.1757 95.6529 92.4995 96.1633 93.4059C96.6727 94.3123 96.3498 95.4608 95.4434 95.9702L80.6675 104.268C80.3761 104.432 80.0588 104.509 79.7473 104.509C79.0889 104.509 78.449 104.163 78.1034 103.548C77.594 102.642 77.9168 101.493 78.8233 100.984L81.091 99.7102L69.7467 92.025C68.8863 91.4412 68.6612 90.2707 69.2439 89.4092Z" fill="#FFD500"/>
<path d="M45.5684 107.839L47.6976 107.839L49.8877 92.5087C50.0339 91.479 50.9853 90.7702 52.018 90.9116C53.0469 91.0588 53.7621 92.0122 53.6151 93.042L51.5012 107.839L60.6321 107.84C61.6719 107.84 62.5151 108.683 62.5151 109.723C62.5151 110.763 61.6719 111.606 60.6321 111.606L45.5686 111.605C44.5288 111.605 43.6856 110.762 43.6856 109.722C43.6856 108.682 44.5286 107.839 45.5684 107.839Z" fill="#FFD500"/>
<path d="M15.3786 61.6178C31.7104 59.5157 54.2249 49.3677 54.9735 28.9282C55.4863 14.9262 66.1996 3.00946 80.1984 2.41831C91.7061 1.93247 101.668 8.82746 105.741 18.7604C107.251 22.4413 107.691 26.4738 107.15 30.4153L106.639 34.1385C106.108 38.0016 104.62 41.6832 102.243 44.7739C102.222 44.8006 102.201 44.8273 102.181 44.8541C101.416 45.8404 101.02 47.0668 101.041 48.3148C101.45 72.3997 84.2289 96.5699 52.5839 96.5699C28.3136 96.5699 7.67959 82.2126 0.144913 62.3081C-0.530624 60.5235 1.27957 58.821 3.02364 59.5952C6.10519 60.963 10.4982 62.2459 15.3786 61.6178Z" fill="#FFD500"/>
<path d="M39.4034 94.2163C70.9947 94.2163 100.112 66.4701 92.668 16.6729C91.8163 10.9756 88.3594 5.87406 84.2719 2.5625C94.1126 3.65173 102.322 10.1513 105.849 19.0263C107.313 22.7131 107.653 26.7529 107.113 30.6833L106.69 33.7637C106.14 37.7702 104.672 41.6339 102.197 44.8326C102.177 44.8593 102.156 44.886 102.135 44.9125C101.356 45.9111 101.024 47.1707 101.043 48.437C101.391 72.4813 84.1752 96.5696 52.5839 96.5696C46.6205 96.5696 40.8963 95.6627 35.5125 94.06C36.801 94.1429 38.0924 94.2163 39.4034 94.2163Z" fill="#FFD500"/>
<path d="M47.6437 41.2941C54.2652 36.0619 63.5994 36.4863 70.0431 41.936C94.5659 62.6757 49.3314 104.244 13.8409 58.1636C12.8094 56.8241 13.5294 54.8668 15.1796 54.4998C22.2228 52.9339 38.2149 48.7446 47.6437 41.2941Z" fill="#FFD500"/>
<path d="M108.237 28.162L113.467 32.6057C114.321 33.3318 114.116 34.7025 113.087 35.1469L106.798 37.8606C105.992 38.2082 105.071 37.8027 104.771 36.9785C104.048 34.9953 103.335 31.3589 106.118 28.3007C106.668 27.6948 107.613 27.6316 108.237 28.162Z" fill="#FFD500"/>
<path d="M15.1783 54.4991C16.8823 54.1199 19.1097 53.5873 21.6402 52.8928C36.6635 75.4672 65.9875 80.3779 75.9478 61.9424C69.9075 79.1139 39.3567 91.2974 13.8377 58.1595C12.807 56.8214 13.5293 54.866 15.1783 54.4991Z" fill="#FFD500"/>
<path d="M90.7555 32.5209C93.8754 32.5209 96.4043 29.9917 96.4043 26.8721V24.9891C96.4043 21.8693 93.8751 19.3403 90.7555 19.3403C87.6357 19.3403 85.1067 21.8695 85.1067 24.9891V26.8721C85.1067 29.9917 87.6359 32.5209 90.7555 32.5209Z" fill="#00296B"/>
<path d="M90.7554 19.3401V25.9305C90.7554 27.4904 89.4909 28.7549 87.931 28.7549C86.3711 28.7549 85.1066 27.4904 85.1066 25.9305V24.9891C85.1066 21.8692 87.6357 19.3401 90.7554 19.3401Z" fill="#003F88"/>
<path d="M90.7547 24.9902C89.7147 24.9902 88.8717 24.1472 88.8717 23.1072C88.8717 22.0673 89.7147 21.2242 90.7547 21.2242C91.7946 21.2242 92.6377 22.0673 92.6377 23.1072C92.6377 24.1472 91.7946 24.9902 90.7547 24.9902Z" fill="white"/>
</svg>
